#define builder_width 62
#define builder_height 62
static char builder_bits[] = {
  0xff, 0xff, 0xff, 0xff, 0xff, 0xff, 0xff, 0x3f,
  0xff, 0xff, 0xff, 0xff, 0xff, 0xff, 0xff, 0x3f,
  0x03, 0x00, 0x00, 0x00, 0x06, 0x00, 0x00, 0x30,
  0x03, 0x00, 0x00, 0x00, 0x06, 0x00, 0x00, 0x30,
  0x03, 0x00, 0x00, 0x00, 0x06, 0x00, 0x00, 0x30,
  0x03, 0x00, 0x00, 0x00, 0x06, 0x00, 0x00, 0x30,
  0x03, 0x00, 0x00, 0x00, 0x06, 0x00, 0x00, 0x33,
  0x03, 0x00, 0x00, 0x00, 0x06, 0x00, 0x80, 0x33,
  0x03, 0x00, 0x00, 0x00, 0x06, 0x00, 0xc0, 0x33,
  0x03, 0x00, 0x00, 0x00, 0x06, 0x00, 0xe0, 0x33,
  0x03, 0x00, 0x00, 0x00, 0x06, 0x00, 0xf0, 0x33,
  0x03, 0x00, 0x00, 0x00, 0x06, 0x00, 0xf8, 0x31,
  0x03, 0x00, 0x00, 0x00, 0xc6, 0x00, 0xfc, 0x30,
  0x03, 0x00, 0x00, 0x00, 0xc6, 0x01, 0x7e, 0x30,
  0x03, 0x00, 0x00, 0x00, 0xc6, 0x03, 0x3f, 0x30,
  0x03, 0x00, 0x00, 0x00, 0xc6, 0x87, 0x1f, 0x30,
  0x03, 0x00, 0x00, 0x00, 0xc6, 0xcf, 0x0f, 0x30,
  0x03, 0x00, 0x00, 0x00, 0x86, 0xff, 0x07, 0x30,
  0x03, 0x00, 0x00, 0x00, 0x06, 0xff, 0x03, 0x30,
  0x03, 0x00, 0x00, 0x00, 0x06, 0xfe, 0x01, 0x30,
  0x03, 0x00, 0x00, 0x00, 0x06, 0xfc, 0x00, 0x30,
  0x03, 0x00, 0x00, 0x00, 0x06, 0x78, 0x00, 0x30,
  0x03, 0x00, 0x00, 0x00, 0x06, 0x30, 0x00, 0x30,
  0x03, 0x00, 0x00, 0x00, 0x06, 0x00, 0x00, 0x30,
  0x03, 0x00, 0x00, 0x00, 0x06, 0x00, 0x00, 0x30,
  0x03, 0x00, 0x00, 0x00, 0x06, 0x00, 0x00, 0x30,
  0x03, 0x00, 0x00, 0x00, 0x06, 0x00, 0x00, 0x30,
  0x03, 0x00, 0x00, 0x00, 0xfe, 0xff, 0xff, 0x3f,
  0x03, 0x00, 0x00, 0x00, 0xfe, 0xff, 0xff, 0x3f,
  0x03, 0x00, 0x00, 0x00, 0x00, 0x00, 0x00, 0x30,
  0x03, 0x00, 0x00, 0x00, 0x00, 0x00, 0x00, 0x30,
  0xff, 0xff, 0xff, 0xff, 0x01, 0x00, 0x00, 0x30,
  0xff, 0xff, 0xff, 0xff, 0x01, 0x00, 0x00, 0x30,
  0x03, 0x00, 0x00, 0x80, 0x01, 0x00, 0x00, 0x30,
  0x9b, 0x99, 0x99, 0x99, 0x01, 0x00, 0x00, 0x30,
  0x9b, 0x99, 0x99, 0x99, 0x01, 0x00, 0x00, 0x30,
  0x03, 0x00, 0x00, 0x80, 0x01, 0x00, 0x00, 0x30,
  0x03, 0x00, 0x00, 0x80, 0x01, 0x00, 0x00, 0x30,
  0x0f, 0x06, 0x18, 0x98, 0x01, 0x00, 0x00, 0x30,
  0x1f, 0x06, 0x18, 0x98, 0x01, 0x00, 0x00, 0x30,
  0x33, 0x06, 0x06, 0x80, 0x01, 0x00, 0x00, 0x30,
  0x33, 0x06, 0x06, 0x80, 0x01, 0x00, 0x00, 0x30,
  0x33, 0x86, 0x01, 0x98, 0x01, 0x00, 0xfe, 0x31,
  0x33, 0x86, 0x01, 0x98, 0x01, 0x80, 0xff, 0x33,
  0x33, 0x66, 0x00, 0x80, 0x01, 0xc0, 0x83, 0x37,
  0x33, 0x66, 0x00, 0x80, 0x01, 0xe0, 0x00, 0x3e,
  0x33, 0x1e, 0x00, 0x98, 0x01, 0x70, 0x00, 0x3c,
  0x33, 0x1e, 0x00, 0x98, 0x01, 0x30, 0x00, 0x38,
  0x33, 0x66, 0x00, 0x80, 0x01, 0x38, 0x7c, 0x38,
  0x33, 0x66, 0x00, 0x80, 0x01, 0x18, 0xfe, 0x30,
  0x33, 0x86, 0x01, 0x98, 0x01, 0x18, 0xff, 0x31,
  0x33, 0x86, 0x01, 0x98, 0x01, 0x18, 0xff, 0x31,
  0x33, 0x06, 0x06, 0x80, 0x01, 0x18, 0xff, 0x31,
  0x33, 0x06, 0x06, 0x80, 0x01, 0x18, 0xff, 0x31,
  0x33, 0x06, 0x18, 0x98, 0x01, 0x18, 0xff, 0x31,
  0x33, 0x06, 0x18, 0x98, 0x01, 0x18, 0xff, 0x31,
  0x1f, 0x06, 0x60, 0x80, 0x01, 0x38, 0xfe, 0x30,
  0x0f, 0x06, 0x60, 0x80, 0x01, 0x38, 0x7c, 0x30,
  0x03, 0x00, 0x00, 0x98, 0x01, 0x70, 0x00, 0x30,
  0x03, 0x00, 0x00, 0x98, 0x01, 0xe0, 0x00, 0x38,
  0xff, 0xff, 0xff, 0xff, 0xff, 0xff, 0xff, 0x3f,
  0xff, 0xff, 0xff, 0xff, 0xff, 0xff, 0xff, 0x3f};
