/*
 * SpecTcl, by S. A. Uhler
 * Copyright (c) 1994-1995 Sun Microsystems, Inc.
 *
 * See the file "license.txt" for information on usage and redistribution
 * of this file, and for a DISCLAIMER OF ALL WARRANTIES.
 *
 */

#define sp_width 63
#define sp_height 63
static char sp_bits[] = {
 0x00,0x00,0x00,0x00,0x00,0x0c,0x00,0x80,0x00,0x00,0x00,0x00,0xc0,0x44,0x00,
 0x80,0x00,0x00,0x00,0x00,0xa0,0x40,0x01,0x80,0x00,0x00,0x00,0x00,0x08,0x00,
 0x04,0x80,0x00,0x00,0x00,0x00,0x04,0x00,0x08,0x80,0x00,0x00,0x00,0x00,0x02,
 0x00,0x18,0x80,0x00,0x00,0x00,0x00,0x00,0x00,0x00,0x80,0x00,0x00,0x00,0x00,
 0x00,0x00,0x00,0x80,0x00,0x00,0x00,0x80,0x00,0x00,0x40,0x80,0x00,0x00,0x00,
 0x00,0x00,0x00,0x40,0x80,0x00,0x00,0x00,0xc0,0x00,0x00,0x80,0x80,0x00,0x00,
 0x00,0x80,0xff,0x03,0xe0,0x80,0x00,0x00,0x00,0x80,0x7f,0x03,0x60,0x80,0x00,
 0x00,0x00,0xa0,0xd5,0x01,0x20,0x81,0x00,0x00,0x00,0xc0,0x7f,0x03,0x70,0x80,
 0x00,0x00,0x00,0x20,0x08,0x00,0x50,0x81,0x00,0x00,0x00,0x10,0x1c,0x00,0x70,
 0x82,0x78,0x00,0x00,0x10,0x14,0x00,0x50,0x82,0xfc,0x00,0x00,0x00,0x1c,0x78,
 0x70,0x80,0xc4,0x00,0x00,0x00,0x14,0xec,0x50,0x80,0x84,0x00,0x00,0x10,0x1c,
 0xbe,0x71,0x80,0x84,0x14,0x0c,0x06,0x14,0xca,0x10,0x82,0x04,0x3c,0x1e,0x0f,
 0x1c,0x87,0x31,0x80,0x0c,0x26,0x12,0x19,0x04,0x02,0x29,0x80,0x18,0x66,0xa1,
 0x08,0x0e,0x07,0x38,0x82,0x70,0x42,0xa1,0x00,0x0a,0x03,0x28,0x80,0x60,0x42,
 0xbf,0x10,0x8e,0x02,0x38,0x80,0x40,0x62,0xbf,0x00,0x8a,0x03,0x28,0x80,0x43,
 0x22,0x81,0x10,0x8e,0x02,0x38,0x82,0x42,0x22,0x91,0x18,0x8a,0x03,0x28,0x82,
 0x42,0x22,0x91,0x2c,0x0e,0xc1,0x19,0x80,0x66,0x36,0x9b,0x04,0x02,0xa3,0x10,
 0x81,0x3c,0x1e,0x0e,0x27,0x07,0xe7,0x1c,0x81,0x00,0x01,0x00,0x20,0x05,0x6d,
 0x14,0x81,0x00,0x01,0x00,0x40,0x07,0x7f,0x1c,0x80,0x00,0x01,0x00,0x40,0x05,
 0x54,0x94,0x80,0x00,0x01,0x00,0x00,0x07,0x1c,0x1c,0x80,0x00,0x01,0x00,0x80,
 0x00,0x00,0x40,0x80,0x00,0x00,0x00,0x00,0x00,0x00,0x00,0x80,0x00,0x00,0x00,
 0x00,0x00,0x00,0x20,0x80,0x00,0x00,0x00,0x00,0x06,0x00,0x70,0x80,0x00,0x00,
 0x00,0x00,0x04,0x00,0x78,0x80,0x00,0x00,0x00,0x00,0x28,0x00,0xfe,0x80,0x00,
 0x00,0x00,0x00,0x10,0x80,0xfe,0x80,0x00,0x00,0x00,0x00,0xc0,0xe9,0xf4,0x81,
 0x00,0x00,0x00,0x00,0x00,0x0c,0xfc,0x83,0x00,0x00,0x00,0x00,0x00,0x00,0xe8,
 0x83,0x00,0x00,0x00,0x00,0x00,0x00,0xf8,0x87,0x00,0x00,0x00,0x00,0x00,0x00,
 0xd0,0x87,0x00,0x00,0x00,0x00,0x00,0x00,0xf0,0x8f,0x00,0x00,0x00,0x00,0x00,
 0x00,0xa0,0x8f,0x00,0x00,0x00,0x00,0x00,0x00,0xe0,0x9f,0x00,0x00,0x00,0x00,
 0x00,0x00,0x40,0x9f,0x00,0x00,0x00,0x00,0x00,0x00,0xc0,0xbf,0x00,0x00,0x00,
 0x00,0x00,0x00,0x80,0xbe,0x00,0x00,0x00,0x00,0x00,0x00,0x00,0xff,0x00,0x00,
 0x00,0x00,0x00,0x00,0x00,0xff,0x00,0x00,0x00,0x00,0x00,0x00,0x00,0xfa,0x00,
 0x00,0x00,0x00,0x00,0x00,0x00,0xfe,0x00,0x00,0x00,0x00,0x00,0x00,0x00,0xfc,
 0x00,0x00,0x00,0x00,0x00,0x00,0x00,0xfc,0x00,0x00,0x00,0x00,0x00,0x00,0x00,
 0xe8,0x00,0x00,0x00,0x00,0x00,0x00,0x00,0xe8};
